<svg width="1620" height="557" viewBox="0 0 1620 557" fill="none" xmlns="http://www.w3.org/2000/svg">
<g clip-path="url(#clip0_3478_13771)">
<path d="M417.01 242.01H345.01V314.01H417.01V242.01Z" fill="white"/>
<path d="M489.01 147.05V98H273V147.05C273 159.73 262.73 170 250.05 170H201V386.01H250.05C262.73 386.01 273 396.28 273 408.96V458.01H489.01V408.96C489.01 396.28 499.28 386.01 511.96 386.01H561.01V170H511.96C499.28 170 489.01 159.73 489.01 147.05ZM489.01 363.05C489.01 375.73 478.74 386 466.06 386H295.96C283.28 386 273.01 375.73 273.01 363.05V192.95C273.01 180.27 283.28 170 295.96 170H466.06C478.74 170 489.01 180.27 489.01 192.95V363.05Z" fill="white"/>
<path d="M772.75 170H741V386H882.11V355.45H772.75V170Z" fill="white"/>
<path d="M973.65 233.6H962.36C928.42 233.6 894.18 254.41 894.18 300.89V323.48C894.18 365.61 918.56 390.77 959.39 390.77H976.63C1011.08 390.77 1035.59 370.49 1040.62 337.83L1041.06 334.95H1008.36L1007.82 336.73C1002.98 352.75 990.33 360.22 968.01 360.22C939.04 360.22 925.37 347.35 925.04 319.74H1041.83V300.89C1041.83 254.41 1007.59 233.6 973.65 233.6ZM925.98 292.74C929.22 272.48 941.61 264.15 968 264.15C994.39 264.15 1006.77 272.48 1010.01 292.74H925.98Z" fill="white"/>
<path d="M1105.18 170H1073.44V233.6H1052.34V264.15H1073.44V324.66C1073.44 378.03 1105.91 386 1125.27 386H1145.3V355.45H1133.89C1113.5 355.45 1105.18 345.15 1105.18 319.91V264.16H1145.3V233.61H1105.18V170.01V170Z" fill="white"/>
<path d="M1212.44 170H1180.7V233.6H1159.6V264.15H1180.7V324.66C1180.7 378.03 1213.17 386 1232.53 386H1252.56V355.45H1241.15C1220.76 355.45 1212.44 345.15 1212.44 319.91V264.16H1252.56V233.61H1212.44V170.01V170Z" fill="white"/>
<path d="M1416.1 355.45C1409.81 355.45 1407.01 352.83 1407.01 346.95V294.94C1407.01 241.57 1374.54 233.6 1355.18 233.6H1326.06C1300.88 233.6 1273.93 252.04 1273.93 279.49V281.99H1305.67V279.49C1305.67 271.03 1316.02 264.16 1328.73 264.16H1346.56C1369.34 264.16 1374.26 272.36 1375.17 290.67H1329.32C1293.87 290.67 1270.06 309.59 1270.06 337.75V341.02C1270.06 355.89 1275.83 390.48 1329.32 390.48C1342.98 390.48 1366.85 388.09 1379.69 372.85C1387.47 386.02 1403.86 386.02 1416.1 386.02H1418.6V355.47H1416.1V355.45ZM1375.26 318.24V339.22C1375.26 356.19 1348.32 359.9 1337.93 359.9C1307.7 359.9 1301.79 352.53 1301.79 339.81C1301.79 325.69 1314.29 318.23 1337.93 318.23H1375.26V318.24Z" fill="white"/>
</g>
<defs>
<clipPath id="clip0_3478_13771">
<rect width="1218" height="361" fill="white" transform="translate(201 98)"/>
</clipPath>
</defs>
</svg>
